#!OML:ASF F:\VICON\USERDATA\INSTALL\rory3\rory3.ASF
:FULLY-SPECIFIED
:DEGREES
98
root -11.4362 17.8275 -0.853923 -2.32221 22.8283 3.47161
lowerback 10.3811 0.846498 -3.7351
upperback 0.984657 0.6712 -0.669361
thorax -4.83106 0.404337 1.30814
lowerneck -20.4982 -4.8415 -11.8971
upperneck 30.0365 -5.14191 7.46055
head 14.2668 -2.52822 4.14348
rclavicle -2.36554e-014 8.52289e-015
rhumerus -36.1803 -16.7102 -77.6542
rradius 30.6309
rwrist 8.17575
rhand -14.4341 8.0822
rfingers 7.12502
rthumb 11.7105 -21.5705
lclavicle -2.36554e-014 8.52289e-015
lhumerus -32.6048 6.84946 84.0593
lradius 32.0228
lwrist -6.55253
lhand -18.2864 28.4846
lfingers 7.12502
lthumb 7.99392 58.3134
rfemur -15.3398 -6.54788 11.2724
rtibia 70.9634
rfoot 0.532392 -1.97497
rtoes 2.19231
lfemur 0.632791 2.12848 -33.7795
ltibia 10.2293
lfoot -2.85129 -4.52133
ltoes 10.0125
99
root -11.3925 17.8105 -0.744128 -2.08586 23.7498 3.66776
lowerback 10.4113 0.679014 -3.92138
upperback 0.871497 0.420223 -0.716015
thorax -4.95495 0.287348 1.39965
lowerneck -20.2729 -4.65967 -11.6348
upperneck 29.8796 -4.97033 7.40323
head 14.1141 -2.43171 4.10163
rclavicle 2.93145e-014 6.93262e-015
rhumerus -36.7372 -16.9584 -77.5745
rradius 30.6817
rwrist 7.84142
rhand -14.2507 8.16731
rfingers 7.12502
rthumb 11.8873 -21.4752
lclavicle 2.93145e-014 6.93262e-015
lhumerus -32.396 6.70186 84.0023
lradius 32.4023
lwrist -6.06892
lhand -18.4364 28.3521
lfingers 7.12502
lthumb 7.84914 58.1864
rfemur -16.5147 -6.38093 11.1469
rtibia 70.947
rfoot -0.379168 -1.99914
rtoes 2.19932
lfemur 0.807182 1.99666 -33.9617
ltibia 10.5874
lfoot -3.31279 -5.19517
ltoes 10.1128
100
root -11.3445 17.796 -0.627937 -1.93583 24.6072 3.808
lowerback 10.369 0.542925 -4.06977
upperback 0.820835 0.222005 -0.736844
thorax -4.97439 0.193643 1.49019
lowerneck -20.0425 -4.59649 -11.499
upperneck 29.6781 -4.92248 7.33612
head 13.963 -2.40441 4.05256
rclavicle 1.71281e-014 1.1778e-014
rhumerus -37.3383 -17.1637 -77.4957
rradius 30.8636
rwrist 7.35748
rhand -14.255 8.36171
rfingers 7.12502
rthumb 11.8832 -21.2811
lclavicle 1.71281e-014 1.1778e-014
lhumerus -32.1296 6.54263 83.9922
lradius 32.8571
lwrist -5.75837
lhand -18.0894 28.894
lfingers 7.12502
lthumb 8.18403 58.7155
rfemur -17.5228 -6.10465 11.0509
rtibia 70.7226
rfoot -1.41898 -2.16066
rtoes 2.73018
lfemur 1.02246 1.83769 -34.0876
ltibia 11.0578
lfoot -3.91451 -5.70442
ltoes 10.2803
101
root -11.2932 17.7832 -0.507812 -1.8576 25.3352 4.03069
lowerback 10.3922 0.444598 -4.32769
upperback 0.832697 0.0619808 -0.72013
thorax -4.96637 0.120341 1.67596
lowerneck -20.0442 -4.62898 -11.5632
upperneck 29.5945 -4.92055 7.27221
head 13.9278 -2.41795 4.03441
rclavicle -1.89606e-014 -1.87852e-014
rhumerus -37.8001 -17.1589 -77.4474
rradius 31.1133
rwrist 6.71973
rhand -14.2542 8.19155
rfingers 7.12502
rthumb 11.884 -21.4512
lclavicle -1.89606e-014 -1.87852e-014
lhumerus -31.8771 6.38728 84.1076
lradius 33.5723
lwrist -5.36321
lhand -17.3361 29.9972
lfingers 7.12502
lthumb 8.91101 59.789
rfemur -18.3732 -5.57407 10.8705
rtibia 70.2736
rfoot -2.46099 -2.36246
rtoes 3.18232
lfemur 1.33629 1.69686 -34.2797
ltibia 11.5841
lfoot -4.52472 -6.14881
ltoes 10.1403
102
root -11.2439 17.7643 -0.391394 -1.70432 26.0998 4.34023
lowerback 10.3596 0.321684 -4.68708
upperback 0.890183 -0.137882 -0.711661
thorax -4.87484 0.0270567 1.91589
lowerneck -20.2487 -4.68483 -11.6715
upperneck 29.5926 -4.92612 7.24014
head 13.9755 -2.4336 4.03781
rclavicle 1.05604e-014 -1.58531e-014
rhumerus -37.9675 -16.9722 -77.5073
rradius 31.1562
rwrist 6.02898
rhand -14.2415 7.89459
rfingers 7.12502
rthumb 11.8962 -21.7474
lclavicle 1.05604e-014 -1.58531e-014
lhumerus -31.5951 6.22545 84.2821
lradius 34.2422
lwrist -4.81654
lhand -17.3476 30.4167
lfingers 7.12502
lthumb 8.89995 60.209
rfemur -19.2461 -5.07314 10.5939
rtibia 69.6653
rfoot -3.44233 -2.42135
rtoes 1.94136
lfemur 1.57537 1.58162 -34.5509
ltibia 12.1716
lfoot -5.173 -6.65945
ltoes 10.1593
103
root -11.2006 17.7456 -0.281357 -1.55696 26.9642 4.46011
lowerback 10.3192 0.186347 -4.8841
upperback 0.946685 -0.332845 -0.664555
thorax -4.77834 -0.0674188 2.10365
lowerneck -20.3984 -4.75217 -11.7549
upperneck 29.5099 -4.97624 7.25298
head 13.982 -2.45911 4.04453
rclavicle -4.26517e-014 -4.07509e-015
rhumerus -38.0301 -16.9645 -77.5294
rradius 30.9887
rwrist 5.79429
rhand -14.5755 7.68867
rfingers 7.12502
rthumb 11.5741 -21.9717
lclavicle -4.26517e-014 -4.07509e-015
lhumerus -31.1697 6.03202 84.4305
lradius 34.6072
lwrist -4.34009
lhand -17.8089 30.0266
lfingers 7.12502
lthumb 8.45472 59.8374
rfemur -20.1436 -4.62152 10.5305
rtibia 68.8935
rfoot -4.3354 -2.54217
rtoes 1.56718
lfemur 1.72459 1.30586 -34.6293
ltibia 12.7456
lfoot -5.78058 -7.13428
ltoes 9.56505
